<?xml version="1.0" encoding="utf-8"?>
               <svg xmlns="http://www.w3.org/2000/svg"
                    xmlns:xlink="http://www.w3.org/1999/xlink"
                    xml:space="preserve"
                    viewBox="0 0 808 512">
                    <g xmlns="http://www.w3.org/2000/svg" data-paper-data="{&quot;selected&quot;:false,&quot;guideItem&quot;:null}" fill="none" fill-rule="nonzero" stroke="none" stroke-width="1" stroke-linecap="butt" stroke-linejoin="miter" stroke-miterlimit="10" stroke-dasharray="" stroke-dashoffset="0" font-family="none" font-weight="none" font-size="none" text-anchor="none" style="mix-blend-mode: normal"><path d="M606.00001,121.78v266.44c0,23.04 -18.74,41.78 -41.78,41.78h-266.44c-23.04,0 -41.78,-18.74 -41.78,-41.78v-266.44c0,-23.04 18.74,-41.78 41.78,-41.78h266.44c23.04,0 41.78,18.74 41.78,41.78z" data-paper-data="{&quot;guideItem&quot;:null}" fill="#ecf9fd"/><path d="M606.00001,121.78v266.44c0,23.04 -18.74,41.78 -41.78,41.78h-133.22v-350h133.22c23.04,0 41.78,18.74 41.78,41.78z" data-paper-data="{&quot;guideItem&quot;:null}" fill="#d9f3fc"/><path d="M671.00001,271h-480c-19.844,0 -19.85,-30 0,-30h480c19.844,0 19.85,30 0,30z" data-paper-data="{&quot;guideItem&quot;:null}" fill="#58b354"/><path d="M671.00001,271h-240v-30h240c19.844,0 19.85,30 0,30z" data-paper-data="{&quot;guideItem&quot;:null}" fill="#00a963"/><path d="M657.00001,127v-71.659c0,-13.973 -11.368,-25.341 -25.34,-25.341h-71.66c-19.832,0 -19.86,-30 0,-30h71.66c30.514,0 55.34,24.826 55.34,55.341v71.659c0,19.832 -30,19.86 -30,0z" data-paper-data="{&quot;guideItem&quot;:null}" fill="#001737"/><path d="M631.66001,512h-71.66c-19.832,0 -19.86,-30 0,-30h71.66c13.973,0 25.34,-11.368 25.34,-25.341v-71.659c0,-19.832 30,-19.86 30,0v71.659c0,30.515 -24.826,55.341 -55.34,55.341z" data-paper-data="{&quot;guideItem&quot;:null}" fill="#001737"/><path d="M175.00001,127v-71.659c0,-30.515 24.826,-55.341 55.34,-55.341h71.66c19.832,0 19.86,30 0,30h-71.66c-13.972,0 -25.34,11.368 -25.34,25.341v71.659c0,19.832 -30,19.86 -30,0z" data-paper-data="{&quot;guideItem&quot;:null}" fill="#00357b"/><path d="M302.00001,512h-71.66c-30.514,0 -55.34,-24.826 -55.34,-55.341v-71.659c0,-19.832 30,-19.86 30,0v71.659c0,13.973 11.368,25.341 25.34,25.341h71.66c19.832,0 19.86,30 0,30z" data-paper-data="{&quot;guideItem&quot;:null}" fill="#00357b"/><path d="M564.21801,430h-47.575c-19.832,0 -19.86,-30 0,-30h47.575c6.497,0 11.782,-5.285 11.782,-11.782v-47.574c0,-19.832 30,-19.86 30,0v47.574c0,23.039 -18.744,41.782 -41.782,41.782z" data-paper-data="{&quot;guideItem&quot;:null}" fill="#001737"/><path d="M576.00001,169.356v-47.574c0,-6.497 -5.286,-11.782 -11.782,-11.782h-47.575c-19.832,0 -19.86,-30 0,-30h47.575c23.038,0 41.782,18.743 41.782,41.782v47.574c0,19.832 -30,19.86 -30,0z" data-paper-data="{&quot;guideItem&quot;:null}" fill="#001737"/><g fill="#00357b"><path d="M256.00001,169.356v-47.574c0,-23.039 18.744,-41.782 41.782,-41.782h47.575c19.832,0 19.86,30 0,30h-47.575c-6.497,0 -11.782,5.285 -11.782,11.782v47.574c0,19.832 -30,19.86 -30,0z" data-paper-data="{&quot;guideItem&quot;:null}"/><path d="M345.35701,430h-47.575c-23.038,0 -41.782,-18.743 -41.782,-41.782v-47.574c0,-19.832 30,-19.86 30,0v47.574c0,6.497 5.286,11.782 11.782,11.782h47.575c19.832,0 19.86,30 0,30z" data-paper-data="{&quot;guideItem&quot;:null}"/></g></g><path xmlns="http://www.w3.org/2000/svg" d="M115.25425,151c0,-25.77333 21.24746,-46.66667 47.45763,-46.66667h27.11864h33.89831c0,-14.72667 -17.50508,-26.66667 -47.45763,-26.66667h-54.23729c-12.80678,0 -24.86102,5.92667 -32.54237,16c-5.28136,6.92667 -8.13559,15.34667 -8.13559,24v73.33333l33.89831,-20z" data-paper-data="{&quot;guideItem&quot;:null,&quot;selected&quot;:false}" fill="#4d2817" fill-rule="nonzero" stroke="none" stroke-width="1" stroke-linecap="butt" stroke-linejoin="miter" stroke-miterlimit="10" stroke-dasharray="" stroke-dashoffset="0" font-family="none" font-weight="none" font-size="none" text-anchor="none" style="mix-blend-mode: normal"/><path xmlns="http://www.w3.org/2000/svg" d="M74.57628,252.26667v-61.26667h-13.55932c-14.97627,0 -27.11864,11.94 -27.11864,26.66667v26.66667c0,14.72667 12.14237,26.66667 27.11864,26.66667h18.3661c-3.08475,-5.71333 -4.80678,-12.11333 -4.80678,-18.73333z" data-paper-data="{&quot;guideItem&quot;:null,&quot;selected&quot;:false}" fill="#606060" fill-rule="nonzero" stroke="none" stroke-width="1" stroke-linecap="butt" stroke-linejoin="miter" stroke-miterlimit="10" stroke-dasharray="" stroke-dashoffset="0" font-family="none" font-weight="none" font-size="none" text-anchor="none" style="mix-blend-mode: normal"/><path xmlns="http://www.w3.org/2000/svg" d="M257.62713,244.33333v-26.66667c0,-14.72667 -12.14237,-26.66667 -27.11864,-26.66667h-6.77966v53.33333z" data-paper-data="{&quot;guideItem&quot;:null,&quot;selected&quot;:false}" fill="#606060" fill-rule="nonzero" stroke="none" stroke-width="1" stroke-linecap="butt" stroke-linejoin="miter" stroke-miterlimit="10" stroke-dasharray="" stroke-dashoffset="0" font-family="none" font-weight="none" font-size="none" text-anchor="none" style="mix-blend-mode: normal"/><path xmlns="http://www.w3.org/2000/svg" d="M189.83052,124.33333v-20h-27.11864c-26.21017,0 -47.45763,20.89333 -47.45763,46.66667v20h27.11864c26.21017,0 47.45763,-20.89333 47.45763,-46.66667z" data-paper-data="{&quot;guideItem&quot;:null,&quot;selected&quot;:false}" fill="#4d2817" fill-rule="nonzero" stroke="none" stroke-width="1" stroke-linecap="butt" stroke-linejoin="miter" stroke-miterlimit="10" stroke-dasharray="" stroke-dashoffset="0" font-family="none" font-weight="none" font-size="none" text-anchor="none" style="mix-blend-mode: normal"/><path xmlns="http://www.w3.org/2000/svg" d="M189.83052,124.33333c0,25.77333 -21.24746,46.66667 -47.45763,46.66667h40.67797c26.21017,0 47.45763,-20.89333 47.45763,-46.66667v-20h-6.77966h-33.89831z" data-paper-data="{&quot;guideItem&quot;:null,&quot;selected&quot;:false}" fill="#66351e" fill-rule="nonzero" stroke="none" stroke-width="1" stroke-linecap="butt" stroke-linejoin="miter" stroke-miterlimit="10" stroke-dasharray="" stroke-dashoffset="0" font-family="none" font-weight="none" font-size="none" text-anchor="none" style="mix-blend-mode: normal"/><path xmlns="http://www.w3.org/2000/svg" d="M183.05086,171h40.67797c7.28814,0 14.16949,-1.66667 20.33898,-4.55333v-0.07333v0.07333c16.02034,-7.49333 27.11864,-23.51333 27.11864,-42.11333v-20h-40.67797v20c0,25.77333 -21.24746,46.66667 -47.45763,46.66667z" data-paper-data="{&quot;guideItem&quot;:null,&quot;selected&quot;:false}" fill="#4d2817" fill-rule="nonzero" stroke="none" stroke-width="1" stroke-linecap="butt" stroke-linejoin="miter" stroke-miterlimit="10" stroke-dasharray="" stroke-dashoffset="0" font-family="none" font-weight="none" font-size="none" text-anchor="none" style="mix-blend-mode: normal"/><path xmlns="http://www.w3.org/2000/svg" d="M108.47459,77.66667h-13.55932c-12.80678,0 -24.86102,5.92667 -32.54237,16c-5.28136,6.92667 -8.13559,15.34667 -8.13559,24v73.33333h6.77966h20.33898v-73.33333c0,-8.65333 2.85424,-17.07333 8.13559,-24c7.68136,-10.07333 19.73559,-16 32.54237,-16z" data-paper-data="{&quot;guideItem&quot;:null,&quot;selected&quot;:false}" fill="#66351e" fill-rule="nonzero" stroke="none" stroke-width="1" stroke-linecap="butt" stroke-linejoin="miter" stroke-miterlimit="10" stroke-dasharray="" stroke-dashoffset="0" font-family="none" font-weight="none" font-size="none" text-anchor="none" style="mix-blend-mode: normal"/><path xmlns="http://www.w3.org/2000/svg" d="M54.2373,251v-26.66667c0,-12.41333 8.66441,-22.75333 20.33898,-25.72667v-7.60667h-13.55932c-14.97627,0 -27.11864,11.94 -27.11864,26.66667v26.66667c0,14.72667 12.14237,26.66667 27.11864,26.66667h2.57627c-5.68814,-4.88667 -9.35593,-11.98667 -9.35593,-20z" data-paper-data="{&quot;guideItem&quot;:null,&quot;selected&quot;:false}" fill="#878787" fill-rule="nonzero" stroke="none" stroke-width="1" stroke-linecap="butt" stroke-linejoin="miter" stroke-miterlimit="10" stroke-dasharray="" stroke-dashoffset="0" font-family="none" font-weight="none" font-size="none" text-anchor="none" style="mix-blend-mode: normal"/><path xmlns="http://www.w3.org/2000/svg" d="M230.50848,191h-6.77966v13.33333c14.97627,0 27.11864,11.94 27.11864,26.66667v13.33333h6.77966v-26.66667c0,-14.72667 -12.14237,-26.66667 -27.11864,-26.66667z" data-paper-data="{&quot;guideItem&quot;:null,&quot;selected&quot;:false}" fill="#878787" fill-rule="nonzero" stroke="none" stroke-width="1" stroke-linecap="butt" stroke-linejoin="miter" stroke-miterlimit="10" stroke-dasharray="" stroke-dashoffset="0" font-family="none" font-weight="none" font-size="none" text-anchor="none" style="mix-blend-mode: normal"/><path xmlns="http://www.w3.org/2000/svg" d="M257.62713,346.69333c18.8678,7.51333 33.89831,16.08 33.89831,24.30667v93.33333h-284.74576v-93.33333c0,-22.09333 108.47458,-46.66667 108.47458,-46.66667h67.79661z" data-paper-data="{&quot;guideItem&quot;:null,&quot;selected&quot;:false}" fill="#d0382a" fill-rule="nonzero" stroke="none" stroke-width="1" stroke-linecap="butt" stroke-linejoin="miter" stroke-miterlimit="10" stroke-dasharray="" stroke-dashoffset="0" font-family="none" font-weight="none" font-size="none" text-anchor="none" style="mix-blend-mode: normal"/><path xmlns="http://www.w3.org/2000/svg" d="M257.62713,366.69333l-74.57627,-22.36h-67.79661c0,0 -95.72881,21.69333 -107.31525,42.63333l-1.15932,-15.96667c0,-22.09333 108.47458,-46.66667 108.47458,-46.66667h67.79661l74.57627,22.36c18.8678,7.51333 33.89831,16.08 33.89831,24.30667l-1.17288,16.12667c-3.72881,-7 -16.8,-14.09333 -32.72542,-20.43333z" data-paper-data="{&quot;guideItem&quot;:null,&quot;selected&quot;:false}" fill="#b33024" fill-rule="nonzero" stroke="none" stroke-width="1" stroke-linecap="butt" stroke-linejoin="miter" stroke-miterlimit="10" stroke-dasharray="" stroke-dashoffset="0" font-family="none" font-weight="none" font-size="none" text-anchor="none" style="mix-blend-mode: normal"/><path xmlns="http://www.w3.org/2000/svg" d="M108.47459,171h115.25424v81.26667c0,11.87333 -5.36271,23.12667 -14.63729,30.72667l-31.88475,17.18c-5.06441,2.73333 -10.73898,4.16 -16.51525,4.16h-23.08475c-5.76949,0 -11.45085,-1.42667 -16.51525,-4.16l-31.88475,-17.18c-9.2678,-7.6 -14.63051,-18.86 -14.63051,-30.72667v-54.6z" data-paper-data="{&quot;guideItem&quot;:null,&quot;selected&quot;:false}" fill="#fce0b9" fill-rule="nonzero" stroke="none" stroke-width="1" stroke-linecap="butt" stroke-linejoin="miter" stroke-miterlimit="10" stroke-dasharray="" stroke-dashoffset="0" font-family="none" font-weight="none" font-size="none" text-anchor="none" style="mix-blend-mode: normal"/><path xmlns="http://www.w3.org/2000/svg" d="M121.09832,300.17333c5.06441,2.73333 10.73898,4.16 16.51525,4.16h23.08475c5.76949,0 11.45085,-1.42667 16.51525,-4.16l5.83729,-3.14667v40.64c-18.71864,18.40667 -49.07797,18.40667 -67.79661,0v-40.64z" data-paper-data="{&quot;guideItem&quot;:null,&quot;selected&quot;:false}" fill="#fce0b9" fill-rule="nonzero" stroke="none" stroke-width="1" stroke-linecap="butt" stroke-linejoin="miter" stroke-miterlimit="10" stroke-dasharray="" stroke-dashoffset="0" font-family="none" font-weight="none" font-size="none" text-anchor="none" style="mix-blend-mode: normal"/><path xmlns="http://www.w3.org/2000/svg" d="M115.25425,297.02667l5.84407,3.14667c5.06441,2.73333 10.73898,4.16 16.51525,4.16h23.08475c5.76949,0 11.45085,-1.42667 16.51525,-4.16l5.83729,-3.14667v40.64c-1.07119,1.05333 -2.18983,2.02667 -3.32881,2.96l-64.4678,-41.05333z" data-paper-data="{&quot;guideItem&quot;:null,&quot;selected&quot;:false}" fill="#f5cba1" fill-rule="nonzero" stroke="none" stroke-width="1" stroke-linecap="butt" stroke-linejoin="miter" stroke-miterlimit="10" stroke-dasharray="" stroke-dashoffset="0" font-family="none" font-weight="none" font-size="none" text-anchor="none" style="mix-blend-mode: normal"/><path xmlns="http://www.w3.org/2000/svg" d="M162.71187,224.33333c-3.74237,0 -6.77966,2.98667 -6.77966,6.66667v73.33333h4.75932c5.76949,0 11.45085,-1.42667 16.51525,-4.16l31.88475,-17.18c9.27458,-7.6 14.63729,-18.86 14.63729,-30.72667v-27.93333z" data-paper-data="{&quot;guideItem&quot;:null,&quot;selected&quot;:false}" fill="#f5cba1" fill-rule="nonzero" stroke="none" stroke-width="1" stroke-linecap="butt" stroke-linejoin="miter" stroke-miterlimit="10" stroke-dasharray="" stroke-dashoffset="0" font-family="none" font-weight="none" font-size="none" text-anchor="none" style="mix-blend-mode: normal"/><g xmlns="http://www.w3.org/2000/svg" data-paper-data="{&quot;selected&quot;:false,&quot;guideItem&quot;:null}" fill="#383838" fill-rule="nonzero" stroke="none" stroke-width="1" stroke-linecap="butt" stroke-linejoin="miter" stroke-miterlimit="10" stroke-dasharray="" stroke-dashoffset="0" font-family="none" font-weight="none" font-size="none" text-anchor="none" style="mix-blend-mode: normal"><path d="M176.2712,244.33333v56.27333v30.39333v60h94.91525v-113.33333c0,-7.36667 6.0678,-13.33333 13.55932,-13.33333c7.49153,0 13.55932,5.96667 13.55932,13.33333v113.33333h94.91525v-146.66667z" data-paper-data="{&quot;guideItem&quot;:null}"/><path d="M284.74577,264.33333c-7.49153,0 -13.55932,5.96667 -13.55932,13.33333v113.33333v46.66667h27.11864v-46.66667v-113.33333c0,-7.36667 -6.0678,-13.33333 -13.55932,-13.33333z" data-paper-data="{&quot;guideItem&quot;:null}"/><path d="M223.72882,437.66667v26.66667h122.0339v-26.66667h-47.45763h-27.11864z" data-paper-data="{&quot;guideItem&quot;:null}"/></g><path xmlns="http://www.w3.org/2000/svg" d="M142.37289,157.66667h-27.11864v13.33333h27.11864c26.21017,0 47.45763,-20.89333 47.45763,-46.66667v-13.33333c0,25.77333 -21.24746,46.66667 -47.45763,46.66667z" data-paper-data="{&quot;guideItem&quot;:null,&quot;selected&quot;:false}" fill="#3d2012" fill-rule="nonzero" stroke="none" stroke-width="1" stroke-linecap="butt" stroke-linejoin="miter" stroke-miterlimit="10" stroke-dasharray="" stroke-dashoffset="0" font-family="none" font-weight="none" font-size="none" text-anchor="none" style="mix-blend-mode: normal"/><path xmlns="http://www.w3.org/2000/svg" d="M183.05086,157.66667h-7.49831c-8.55593,8.24 -20.25763,13.33333 -33.17966,13.33333h40.67797c26.21017,0 47.45763,-20.89333 47.45763,-46.66667v-13.33333c0,25.77333 -21.24746,46.66667 -47.45763,46.66667z" data-paper-data="{&quot;guideItem&quot;:null,&quot;selected&quot;:false}" fill="#4d2817" fill-rule="nonzero" stroke="none" stroke-width="1" stroke-linecap="butt" stroke-linejoin="miter" stroke-miterlimit="10" stroke-dasharray="" stroke-dashoffset="0" font-family="none" font-weight="none" font-size="none" text-anchor="none" style="mix-blend-mode: normal"/><path xmlns="http://www.w3.org/2000/svg" d="M244.06781,153.11333c-6.16949,2.88667 -13.05085,4.55333 -20.33898,4.55333h-7.49831c-8.55593,8.24 -20.25763,13.33333 -33.17966,13.33333h40.67797c7.28814,0 14.16949,-1.66667 20.33898,-4.55333c16.02034,-7.49333 27.11864,-23.51333 27.11864,-42.11333v-13.33333c0,18.60667 -11.09831,34.62 -27.11864,42.11333z" data-paper-data="{&quot;guideItem&quot;:null,&quot;selected&quot;:false}" fill="#3d2012" fill-rule="nonzero" stroke="none" stroke-width="1" stroke-linecap="butt" stroke-linejoin="miter" stroke-miterlimit="10" stroke-dasharray="" stroke-dashoffset="0" font-family="none" font-weight="none" font-size="none" text-anchor="none" style="mix-blend-mode: normal"/><path xmlns="http://www.w3.org/2000/svg" d="M47.45764,437.66667l67.79661,-13.33333h40.67797c11.2339,0 20.33898,8.95333 20.33898,20v20h-128.81356z" data-paper-data="{&quot;guideItem&quot;:null,&quot;selected&quot;:false}" fill="#fce0b9" fill-rule="nonzero" stroke="none" stroke-width="1" stroke-linecap="butt" stroke-linejoin="miter" stroke-miterlimit="10" stroke-dasharray="" stroke-dashoffset="0" font-family="none" font-weight="none" font-size="none" text-anchor="none" style="mix-blend-mode: normal"/><path xmlns="http://www.w3.org/2000/svg" d="M257.62713,260.74667v130.25333h13.55932v-113.33333c0,-7.36667 6.0678,-13.33333 13.55932,-13.33333c7.49153,0 13.55932,5.96667 13.55932,13.33333v113.33333h13.55932v-130.25333c0,-9.06667 -12.14237,-16.41333 -27.11864,-16.41333c-14.97627,0 -27.11864,7.34667 -27.11864,16.41333z" data-paper-data="{&quot;guideItem&quot;:null,&quot;selected&quot;:false}" fill="#262626" fill-rule="nonzero" stroke="none" stroke-width="1" stroke-linecap="butt" stroke-linejoin="miter" stroke-miterlimit="10" stroke-dasharray="" stroke-dashoffset="0" font-family="none" font-weight="none" font-size="none" text-anchor="none" style="mix-blend-mode: normal"/><path xmlns="http://www.w3.org/2000/svg" d="M223.72882,451h122.0339v13.33333h-122.0339z" data-paper-data="{&quot;guideItem&quot;:null,&quot;selected&quot;:false}" fill="#262626" fill-rule="nonzero" stroke="none" stroke-width="1" stroke-linecap="butt" stroke-linejoin="miter" stroke-miterlimit="10" stroke-dasharray="" stroke-dashoffset="0" font-family="none" font-weight="none" font-size="none" text-anchor="none" style="mix-blend-mode: normal"/><path xmlns="http://www.w3.org/2000/svg" d="M115.25425,229.33333c-6.54237,0 -11.86441,-5.23333 -11.86441,-11.66667c0,-6.43333 5.32203,-11.66667 11.86441,-11.66667c6.54237,0 11.86441,5.23333 11.86441,11.66667c0,6.43333 -5.32203,11.66667 -11.86441,11.66667zM115.25425,216c-0.93559,0 -1.69492,0.74667 -1.69492,1.66667c0,1.83333 3.38983,1.83333 3.38983,0c0,-0.92 -0.75932,-1.66667 -1.69492,-1.66667z" data-paper-data="{&quot;selected&quot;:false}" fill="#000000" fill-rule="nonzero" stroke="none" stroke-width="1" stroke-linecap="butt" stroke-linejoin="miter" stroke-miterlimit="10" stroke-dasharray="" stroke-dashoffset="0" font-family="none" font-weight="none" font-size="none" text-anchor="none" style="mix-blend-mode: normal"/><path xmlns="http://www.w3.org/2000/svg" d="M183.05086,229.33333c-6.54237,0 -11.86441,-5.23333 -11.86441,-11.66667c0,-6.43333 5.32203,-11.66667 11.86441,-11.66667c6.54237,0 11.86441,5.23333 11.86441,11.66667c0,6.43333 -5.32203,11.66667 -11.86441,11.66667zM183.05086,216c-0.93559,0 -1.69492,0.74667 -1.69492,1.66667c0,1.83333 3.38983,1.83333 3.38983,0c0,-0.92 -0.75932,-1.66667 -1.69492,-1.66667z" data-paper-data="{&quot;selected&quot;:false}" fill="#000000" fill-rule="nonzero" stroke="none" stroke-width="1" stroke-linecap="butt" stroke-linejoin="miter" stroke-miterlimit="10" stroke-dasharray="" stroke-dashoffset="0" font-family="none" font-weight="none" font-size="none" text-anchor="none" style="mix-blend-mode: normal"/><path xmlns="http://www.w3.org/2000/svg" d="M393.22035,237.66667h-128.81356v-20c0,-10.84667 -5.37627,-20.40667 -13.55932,-26.49333v-20.72c16.18305,-9.24 27.11864,-26.42667 27.11864,-46.12v-20c0,-3.68 -3.03729,-6.66667 -6.77966,-6.66667h-41.62712c-3.97288,-14.12667 -20.8678,-26.66667 -53.28814,-26.66667h-54.23729h-27.11864c-14.86102,0 -29.05085,6.98 -37.9661,18.66667c-6.12203,8.02 -9.49153,17.96667 -9.49153,28v69.44667c-11.9661,5.15333 -20.33898,16.91333 -20.33898,30.55333v26.66667c0,16.09333 11.6678,29.56 27.11864,32.66v57.36667c-28.48814,9.82 -54.23729,22.57333 -54.23729,36.64v93.33333c0,3.68 3.03729,6.66667 6.77966,6.66667h216.94915h122.0339c3.74237,0 6.77966,-2.98667 6.77966,-6.66667v-26.66667c0,-3.68 -3.03729,-6.66667 -6.77966,-6.66667h-40.67797v-33.33333h88.13559c3.74237,0 6.77966,-2.98667 6.77966,-6.66667v-146.66667c0,-3.68 -3.03729,-6.66667 -6.77966,-6.66667zM230.50848,237.66667v-40c11.21356,0 20.33898,8.97333 20.33898,20v20zM122.03391,307.95333c4.93559,1.98667 10.23051,3.04667 15.57966,3.04667h23.07797c2.94237,0 5.89831,-0.36667 8.8,-1v29.37333c-15.17966,8.55333 -34.25085,6.8 -47.45763,-4.58667zM176.2712,237.66667c-3.74237,0 -6.77966,2.98667 -6.77966,6.66667v51.84c-2.86102,0.96 -5.84407,1.49333 -8.8,1.49333h-23.07797c-4.62373,0 -9.20678,-1.15333 -13.26102,-3.33333l-31.28136,-16.86c-7.45763,-6.34 -11.71525,-15.49333 -11.71525,-25.20667v-54.6c1.28136,0 2.40678,-0.44 3.43051,-1.04667l0.06102,0.1l32.28475,-19.05333h99.81695v60zM223.72882,111v13.33333c0,22.06 -18.24407,40 -40.67797,40h-4.92203c11.30169,-9.78 18.48136,-24.06667 18.48136,-40v-13.33333zM183.05086,124.33333c0,22.06 -18.24407,40 -40.67797,40h-20.33898v-13.33333c0,-22.06 18.24407,-40 40.67797,-40h20.33898zM237.28815,185.00667c-2.18983,-0.44 -4.46102,-0.67333 -6.77966,-0.67333v-7.12667c2.31186,-0.28667 4.56949,-0.72667 6.77966,-1.29333zM264.40679,124.33333c0,22.06 -18.24407,40 -40.67797,40h-4.92203c11.30169,-9.78 18.48136,-24.06667 18.48136,-40v-13.33333h27.11864zM94.91526,97.66667c6.3661,-8.34667 16.50169,-13.33333 27.11864,-13.33333h54.23729c20.63051,0 33.5661,6.02 38.42712,13.33333h-51.98644c-29.90508,0 -54.23729,23.92667 -54.23729,53.33333v16.22667l-20.33898,12v-61.56c0,-7.16667 2.40678,-14.27333 6.77966,-20zM61.01696,117.66667c0,-7.16667 2.40678,-14.27333 6.77966,-20c4.98983,-6.54667 12.29831,-11.02 20.33898,-12.65333c-1.45085,1.45333 -2.81356,3.00667 -4.0678,4.65333c-6.12203,8.02 -9.49153,17.96667 -9.49153,28v66.66667h-13.55932zM40.67798,244.33333v-26.66667c0,-11.02667 9.12542,-20 20.33898,-20h6.77966v54.6c0,4.13333 0.61695,8.16667 1.67458,12.06667h-8.45424c-11.21356,0 -20.33898,-8.97333 -20.33898,-20zM67.79662,277.66667h7.70169c2.56271,3.86667 5.67458,7.41333 9.37627,10.44667c0.3322,0.28 0.69831,0.52 1.08475,0.72667l22.51525,12.13333v18.07333c-11.2339,2.63333 -25.82373,6.34 -40.67797,10.9zM13.55933,371c0,-5.06667 16.4339,-13.58667 40.67797,-22.24v80.77333l-8.10847,1.6l2.66441,13.07333l5.44407,-1.07333v14.53333h-40.67797zM169.49154,457.66667h-101.69492v-17.2l48.12881,-9.46667h40.00678c7.47797,0 13.55932,5.98 13.55932,13.33333zM216.94916,437.66667v20h-33.89831v-13.33333c0,-14.70667 -12.16271,-26.66667 -27.11864,-26.66667h-40.67797c-0.44746,0 -0.88814,0.04 -1.32881,0.13333l-46.12881,9.06667v-82.7c12.47458,-4.00667 26.31186,-7.90667 40.67797,-11.38v4.88c0,1.76667 0.71186,3.46667 1.98644,4.71333c10.59661,10.42 24.61695,15.78 38.7322,15.77333c6.88814,0 13.75593,-1.42 20.29831,-4.00667v36.85333c0,3.68 3.03729,6.66667 6.77966,6.66667h88.13559v33.33333h-40.67797c-3.74237,0 -6.77966,2.98667 -6.77966,6.66667zM338.98306,457.66667h-108.47458v-13.33333h108.47458zM277.96611,431v-153.33333c0,-3.67333 3.04407,-6.66667 6.77966,-6.66667c3.73559,0 6.77966,2.99333 6.77966,6.66667v153.33333zM386.44069,384.33333h-81.35593v-106.66667c0,-11.02667 -9.12542,-20 -20.33898,-20c-11.21356,0 -20.33898,8.97333 -20.33898,20v106.66667h-81.35593v-133.33333h203.38983z" data-paper-data="{&quot;selected&quot;:false}" fill="#000000" fill-rule="nonzero" stroke="none" stroke-width="1" stroke-linecap="butt" stroke-linejoin="miter" stroke-miterlimit="10" stroke-dasharray="" stroke-dashoffset="0" font-family="none" font-weight="none" font-size="none" text-anchor="none" style="mix-blend-mode: normal"/><path xmlns="http://www.w3.org/2000/svg" d="M503.67403,262.5065h-11.04972c-12.20442,0 -22.09945,9.31398 -22.09945,20.80173v166.41387c0,11.48776 9.89503,20.80173 22.09945,20.80173h287.29282c12.20442,0 22.09945,-9.31398 22.09945,-20.80173v-166.41387c0,-11.48776 -9.89503,-20.80173 -22.09945,-20.80173h-11.04972z" data-paper-data="{&quot;guideItem&quot;:null,&quot;selected&quot;:false}" fill="#8c95a4" fill-rule="nonzero" stroke="none" stroke-width="1" stroke-linecap="butt" stroke-linejoin="miter" stroke-miterlimit="10" stroke-dasharray="" stroke-dashoffset="0" font-family="none" font-weight="none" font-size="none" text-anchor="none" style="mix-blend-mode: normal"/><path xmlns="http://www.w3.org/2000/svg" d="M470.52486,439.32124h331.49171v-156.013c0,-11.48776 -9.89503,-20.80173 -22.09945,-20.80173h-287.29282c-12.20442,0 -22.09945,9.31398 -22.09945,20.80173z" data-paper-data="{&quot;guideItem&quot;:null,&quot;selected&quot;:false}" fill="#39c3fc" fill-rule="nonzero" stroke="none" stroke-width="1" stroke-linecap="butt" stroke-linejoin="miter" stroke-miterlimit="10" stroke-dasharray="" stroke-dashoffset="0" font-family="none" font-weight="none" font-size="none" text-anchor="none" style="mix-blend-mode: normal"/><rect xmlns="http://www.w3.org/2000/svg" x="681.3178" y="651.82432" transform="scale(0.69061,0.65005)" width="480" height="24" data-paper-data="{&quot;guideItem&quot;:null,&quot;selected&quot;:false}" fill="#148ce0" fill-rule="nonzero" stroke="none" stroke-width="1" stroke-linecap="butt" stroke-linejoin="miter" stroke-miterlimit="10" stroke-dasharray="" stroke-dashoffset="0" font-family="none" font-weight="none" font-size="none" text-anchor="none" style="mix-blend-mode: normal"/><rect xmlns="http://www.w3.org/2000/svg" x="833.3178" y="723.82432" transform="scale(0.69061,0.65005)" width="176" height="48" data-paper-data="{&quot;guideItem&quot;:null,&quot;selected&quot;:false}" fill="#8c95a4" fill-rule="nonzero" stroke="none" stroke-width="1" stroke-linecap="butt" stroke-linejoin="miter" stroke-miterlimit="10" stroke-dasharray="" stroke-dashoffset="0" font-family="none" font-weight="none" font-size="none" text-anchor="none" style="mix-blend-mode: normal"/><rect xmlns="http://www.w3.org/2000/svg" x="729.3178" y="291.82432" transform="scale(0.69061,0.65005)" width="384" height="352" data-paper-data="{&quot;guideItem&quot;:null,&quot;selected&quot;:false}" fill="#ececec" fill-rule="nonzero" stroke="none" stroke-width="1" stroke-linecap="butt" stroke-linejoin="miter" stroke-miterlimit="10" stroke-dasharray="" stroke-dashoffset="0" font-family="none" font-weight="none" font-size="none" text-anchor="none" style="mix-blend-mode: normal"/><path xmlns="http://www.w3.org/2000/svg" d="M704.75138,398.1234c-1.25414,-3.73391 -2.87293,-7.30661 -4.76243,-10.72329l10.50829,-16.68299l-23.44199,-22.06544l-17.72376,9.89122c-3.63536,-1.77855 -7.43094,-3.30228 -11.39227,-4.48277l-5.09392,-18.74756h-33.14917l-5.09392,18.74756c-3.96685,1.1805 -7.76243,2.70423 -11.39227,4.48277l-17.72376,-9.89122l-23.44199,22.06544l10.50829,16.68299c-1.8895,3.42189 -3.50829,6.99458 -4.76243,10.72329l-19.91713,4.7948v15.6013h55.24862c0,-17.23424 14.83978,-31.2026 33.14917,-31.2026c18.30939,0 33.14917,13.96836 33.14917,31.2026h55.24862v-15.6013z" data-paper-data="{&quot;guideItem&quot;:null,&quot;selected&quot;:false}" fill="#fea82f" fill-rule="nonzero" stroke="none" stroke-width="1" stroke-linecap="butt" stroke-linejoin="miter" stroke-miterlimit="10" stroke-dasharray="" stroke-dashoffset="0" font-family="none" font-weight="none" font-size="none" text-anchor="none" style="mix-blend-mode: normal"/><path xmlns="http://www.w3.org/2000/svg" d="M636.27072,366.51517c-30.51381,0 -55.24862,23.28234 -55.24862,52.00433h22.09945c0,-17.23424 14.83978,-31.2026 33.14917,-31.2026c18.30939,0 33.14917,13.96836 33.14917,31.2026h22.09945c0,-28.72199 -24.73481,-52.00433 -55.24862,-52.00433z" data-paper-data="{&quot;guideItem&quot;:null,&quot;selected&quot;:false}" fill="#ffc729" fill-rule="nonzero" stroke="none" stroke-width="1" stroke-linecap="butt" stroke-linejoin="miter" stroke-miterlimit="10" stroke-dasharray="" stroke-dashoffset="0" font-family="none" font-weight="none" font-size="none" text-anchor="none" style="mix-blend-mode: normal"/><rect xmlns="http://www.w3.org/2000/svg" x="729.3178" y="291.82432" transform="scale(0.69061,0.65005)" width="384" height="64" data-paper-data="{&quot;guideItem&quot;:null,&quot;selected&quot;:false}" fill="#fb5968" fill-rule="nonzero" stroke="none" stroke-width="1" stroke-linecap="butt" stroke-linejoin="miter" stroke-miterlimit="10" stroke-dasharray="" stroke-dashoffset="0" font-family="none" font-weight="none" font-size="none" text-anchor="none" style="mix-blend-mode: normal"/><path xmlns="http://www.w3.org/2000/svg" d="M768.8674,231.3039h-93.92265l22.09945,-41.60347h71.8232z" data-paper-data="{&quot;guideItem&quot;:null,&quot;selected&quot;:false}" fill="#cd2c5a" fill-rule="nonzero" stroke="none" stroke-width="1" stroke-linecap="butt" stroke-linejoin="miter" stroke-miterlimit="10" stroke-dasharray="" stroke-dashoffset="0" font-family="none" font-weight="none" font-size="none" text-anchor="none" style="mix-blend-mode: normal"/><path xmlns="http://www.w3.org/2000/svg" d="M779.91713,257.30607h-5.52486v-72.80607h-276.24309v72.80607h-5.52486c-15.23204,0 -27.62431,11.66457 -27.62431,26.00217v166.41387c0,14.33759 12.39227,26.00217 27.62431,26.00217h77.34807v20.80173h-16.57459v10.40087h165.74586v-10.40087h-16.57459v-20.80173h77.34807c15.23204,0 27.62431,-11.66457 27.62431,-26.00217v-166.41387c0,-14.33759 -12.39227,-26.00217 -27.62431,-26.00217zM568.98343,371.53879l17.37569,-16.36056l16.67403,9.30878l2.72376,-1.33131c3.49171,-1.71094 7.03315,-3.10466 10.51934,-4.14475l2.92265,-0.87367l4.78453,-17.62427h24.56906l4.79006,17.62947l2.92265,0.87367c3.48619,1.04009 7.0221,2.4338 10.51934,4.14475l2.72376,1.33131l16.67403,-9.30878l17.37569,16.36056l-9.88398,15.69491l1.41436,2.56381c1.81215,3.28667 3.29282,6.60975 4.39227,9.89642l0.92265,2.75103l18.74033,4.50358v6.36533h-165.74586v-6.36533l18.73481,-4.50878l0.92265,-2.75103c1.10497,-3.28667 2.58011,-6.60975 4.39227,-9.89642l1.41436,-2.56381zM709.01657,393.78104c-0.8011,-2.05937 -1.71823,-4.11874 -2.74586,-6.16251l11.16575,-17.72828l-29.50829,-27.77551l-18.83425,10.51008c-2.1768,-0.96728 -4.36464,-1.83055 -6.54696,-2.57941l-5.41436,-19.93326h-41.72928l-5.41436,19.93326c-2.18232,0.75406 -4.37017,1.61733 -6.54696,2.57941l-18.83425,-10.51008l-29.50829,27.77551l11.16575,17.72828c-1.02762,2.04377 -1.94475,4.10314 -2.74586,6.16251l-21.17127,5.10163v14.4364h-33.14917v-176.81473h254.14365v176.81473h-33.14917v-14.4364zM763.34254,194.90087v31.2026h-254.14365v-31.2026zM492.62431,267.70693h5.52486v156.013h276.24309v-156.013h5.52486c9.13812,0 16.57459,6.99978 16.57459,15.6013v150.81257h-320.44199v-150.81257c0,-8.60152 7.43646,-15.6013 16.57459,-15.6013zM691.51934,496.526h-110.49724v-20.80173h110.49724zM779.91713,465.3234h-287.29282c-9.13812,0 -16.57459,-6.99978 -16.57459,-15.6013v-5.20043h320.44199v5.20043c0,8.60152 -7.43646,15.6013 -16.57459,15.6013z" data-paper-data="{&quot;selected&quot;:false}" fill="#000000" fill-rule="nonzero" stroke="none" stroke-width="1" stroke-linecap="butt" stroke-linejoin="miter" stroke-miterlimit="10" stroke-dasharray="" stroke-dashoffset="0" font-family="none" font-weight="none" font-size="none" text-anchor="none" style="mix-blend-mode: normal"/><path xmlns="http://www.w3.org/2000/svg" d="M660.82873,266.83326l26.25414,16.47497l-26.25414,16.47497l6.1326,8.65352l40.0442,-25.12849l-40.0442,-25.12849z" data-paper-data="{&quot;guideItem&quot;:null,&quot;selected&quot;:false}" fill="#000000" fill-rule="nonzero" stroke="none" stroke-width="1" stroke-linecap="butt" stroke-linejoin="miter" stroke-miterlimit="10" stroke-dasharray="" stroke-dashoffset="0" font-family="none" font-weight="none" font-size="none" text-anchor="none" style="mix-blend-mode: normal"/><path xmlns="http://www.w3.org/2000/svg" d="M605.58011,258.17974l-40.0442,25.12849l40.0442,25.12849l6.1326,-8.65352l-26.25414,-16.47497l26.25414,-16.47497z" data-paper-data="{&quot;guideItem&quot;:null,&quot;selected&quot;:false}" fill="#000000" fill-rule="nonzero" stroke="none" stroke-width="1" stroke-linecap="butt" stroke-linejoin="miter" stroke-miterlimit="10" stroke-dasharray="" stroke-dashoffset="0" font-family="none" font-weight="none" font-size="none" text-anchor="none" style="mix-blend-mode: normal"/><rect xmlns="http://www.w3.org/2000/svg" x="71.3417" y="-1019.91475" transform="rotate(109.51208) scale(0.65421,0.68619) skewX(2.1834)" width="101.189" height="16" data-paper-data="{&quot;guideItem&quot;:null,&quot;selected&quot;:false}" fill="#000000" fill-rule="nonzero" stroke="none" stroke-width="1" stroke-linecap="butt" stroke-linejoin="miter" stroke-miterlimit="10" stroke-dasharray="" stroke-dashoffset="0" font-family="none" font-weight="none" font-size="none" text-anchor="none" style="mix-blend-mode: normal"/><rect xmlns="http://www.w3.org/2000/svg" x="817.3178" y="315.82432" transform="scale(0.69061,0.65005)" width="16" height="16" data-paper-data="{&quot;guideItem&quot;:null,&quot;selected&quot;:false}" fill="#000000" fill-rule="nonzero" stroke="none" stroke-width="1" stroke-linecap="butt" stroke-linejoin="miter" stroke-miterlimit="10" stroke-dasharray="" stroke-dashoffset="0" font-family="none" font-weight="none" font-size="none" text-anchor="none" style="mix-blend-mode: normal"/><rect xmlns="http://www.w3.org/2000/svg" x="785.3178" y="315.82432" transform="scale(0.69061,0.65005)" width="16" height="16" data-paper-data="{&quot;guideItem&quot;:null,&quot;selected&quot;:false}" fill="#000000" fill-rule="nonzero" stroke="none" stroke-width="1" stroke-linecap="butt" stroke-linejoin="miter" stroke-miterlimit="10" stroke-dasharray="" stroke-dashoffset="0" font-family="none" font-weight="none" font-size="none" text-anchor="none" style="mix-blend-mode: normal"/><rect xmlns="http://www.w3.org/2000/svg" x="753.3178" y="315.82432" transform="scale(0.69061,0.65005)" width="16" height="16" data-paper-data="{&quot;guideItem&quot;:null,&quot;selected&quot;:false}" fill="#000000" fill-rule="nonzero" stroke="none" stroke-width="1" stroke-linecap="butt" stroke-linejoin="miter" stroke-miterlimit="10" stroke-dasharray="" stroke-dashoffset="0" font-family="none" font-weight="none" font-size="none" text-anchor="none" style="mix-blend-mode: normal"/><g xmlns="http://www.w3.org/2000/svg" data-paper-data="{&quot;selected&quot;:false}" fill="none" fill-rule="nonzero" stroke="none" stroke-width="1" stroke-linecap="butt" stroke-linejoin="miter" stroke-miterlimit="10" stroke-dasharray="" stroke-dashoffset="0" font-family="sans-serif" font-weight="normal" font-size="12" text-anchor="start" style="mix-blend-mode: normal"/><g xmlns="http://www.w3.org/2000/svg" data-paper-data="{&quot;selected&quot;:false}" fill="none" fill-rule="nonzero" stroke="none" stroke-width="1" stroke-linecap="butt" stroke-linejoin="miter" stroke-miterlimit="10" stroke-dasharray="" stroke-dashoffset="0" font-family="sans-serif" font-weight="normal" font-size="12" text-anchor="start" style="mix-blend-mode: normal"/><g xmlns="http://www.w3.org/2000/svg" data-paper-data="{&quot;selected&quot;:false}" fill="none" fill-rule="nonzero" stroke="none" stroke-width="1" stroke-linecap="butt" stroke-linejoin="miter" stroke-miterlimit="10" stroke-dasharray="" stroke-dashoffset="0" font-family="sans-serif" font-weight="normal" font-size="12" text-anchor="start" style="mix-blend-mode: normal"/><g xmlns="http://www.w3.org/2000/svg" data-paper-data="{&quot;selected&quot;:false}" fill="none" fill-rule="nonzero" stroke="none" stroke-width="1" stroke-linecap="butt" stroke-linejoin="miter" stroke-miterlimit="10" stroke-dasharray="" stroke-dashoffset="0" font-family="sans-serif" font-weight="normal" font-size="12" text-anchor="start" style="mix-blend-mode: normal"/><g xmlns="http://www.w3.org/2000/svg" data-paper-data="{&quot;selected&quot;:false}" fill="none" fill-rule="nonzero" stroke="none" stroke-width="1" stroke-linecap="butt" stroke-linejoin="miter" stroke-miterlimit="10" stroke-dasharray="" stroke-dashoffset="0" font-family="sans-serif" font-weight="normal" font-size="12" text-anchor="start" style="mix-blend-mode: normal"/><g xmlns="http://www.w3.org/2000/svg" data-paper-data="{&quot;selected&quot;:false}" fill="none" fill-rule="nonzero" stroke="none" stroke-width="1" stroke-linecap="butt" stroke-linejoin="miter" stroke-miterlimit="10" stroke-dasharray="" stroke-dashoffset="0" font-family="sans-serif" font-weight="normal" font-size="12" text-anchor="start" style="mix-blend-mode: normal"/><g xmlns="http://www.w3.org/2000/svg" data-paper-data="{&quot;selected&quot;:false}" fill="none" fill-rule="nonzero" stroke="none" stroke-width="1" stroke-linecap="butt" stroke-linejoin="miter" stroke-miterlimit="10" stroke-dasharray="" stroke-dashoffset="0" font-family="sans-serif" font-weight="normal" font-size="12" text-anchor="start" style="mix-blend-mode: normal"/><g xmlns="http://www.w3.org/2000/svg" data-paper-data="{&quot;selected&quot;:false}" fill="none" fill-rule="nonzero" stroke="none" stroke-width="1" stroke-linecap="butt" stroke-linejoin="miter" stroke-miterlimit="10" stroke-dasharray="" stroke-dashoffset="0" font-family="sans-serif" font-weight="normal" font-size="12" text-anchor="start" style="mix-blend-mode: normal"/><g xmlns="http://www.w3.org/2000/svg" data-paper-data="{&quot;selected&quot;:false}" fill="none" fill-rule="nonzero" stroke="none" stroke-width="1" stroke-linecap="butt" stroke-linejoin="miter" stroke-miterlimit="10" stroke-dasharray="" stroke-dashoffset="0" font-family="sans-serif" font-weight="normal" font-size="12" text-anchor="start" style="mix-blend-mode: normal"/><g xmlns="http://www.w3.org/2000/svg" data-paper-data="{&quot;selected&quot;:false}" fill="none" fill-rule="nonzero" stroke="none" stroke-width="1" stroke-linecap="butt" stroke-linejoin="miter" stroke-miterlimit="10" stroke-dasharray="" stroke-dashoffset="0" font-family="sans-serif" font-weight="normal" font-size="12" text-anchor="start" style="mix-blend-mode: normal"/><g xmlns="http://www.w3.org/2000/svg" data-paper-data="{&quot;selected&quot;:false}" fill="none" fill-rule="nonzero" stroke="none" stroke-width="1" stroke-linecap="butt" stroke-linejoin="miter" stroke-miterlimit="10" stroke-dasharray="" stroke-dashoffset="0" font-family="sans-serif" font-weight="normal" font-size="12" text-anchor="start" style="mix-blend-mode: normal"/><g xmlns="http://www.w3.org/2000/svg" data-paper-data="{&quot;selected&quot;:false}" fill="none" fill-rule="nonzero" stroke="none" stroke-width="1" stroke-linecap="butt" stroke-linejoin="miter" stroke-miterlimit="10" stroke-dasharray="" stroke-dashoffset="0" font-family="sans-serif" font-weight="normal" font-size="12" text-anchor="start" style="mix-blend-mode: normal"/><g xmlns="http://www.w3.org/2000/svg" data-paper-data="{&quot;selected&quot;:false}" fill="none" fill-rule="nonzero" stroke="none" stroke-width="1" stroke-linecap="butt" stroke-linejoin="miter" stroke-miterlimit="10" stroke-dasharray="" stroke-dashoffset="0" font-family="sans-serif" font-weight="normal" font-size="12" text-anchor="start" style="mix-blend-mode: normal"/><g xmlns="http://www.w3.org/2000/svg" data-paper-data="{&quot;selected&quot;:false}" fill="none" fill-rule="nonzero" stroke="none" stroke-width="1" stroke-linecap="butt" stroke-linejoin="miter" stroke-miterlimit="10" stroke-dasharray="" stroke-dashoffset="0" font-family="sans-serif" font-weight="normal" font-size="12" text-anchor="start" style="mix-blend-mode: normal"/><g xmlns="http://www.w3.org/2000/svg" data-paper-data="{&quot;selected&quot;:false}" fill="none" fill-rule="nonzero" stroke="none" stroke-width="1" stroke-linecap="butt" stroke-linejoin="miter" stroke-miterlimit="10" stroke-dasharray="" stroke-dashoffset="0" font-family="sans-serif" font-weight="normal" font-size="12" text-anchor="start" style="mix-blend-mode: normal"/>
               </svg> 
